<svg xmlns="http://www.w3.org/2000/svg" viewBox="0 0 1600 1100" role="img" aria-labelledby="title description">
  <title id="title">Lohasmeal architecture on Naver Cloud</title>
  <desc id="description">Jenkins builds the application and publishes its image to Docker Hub before deployment to a Kubernetes cluster on Naver Cloud. User and developer traffic enters Nuxt and Spring services, while Redis, MySQL, Object Storage, Sentry, and Elastic services support the commerce platform.</desc>

  <defs>
    <linearGradient id="page" x1="0" y1="0" x2="1" y2="1">
      <stop offset="0" stop-color="#F8FAFC"/>
      <stop offset="1" stop-color="#EEF2FF"/>
    </linearGradient>
    <linearGradient id="workload" x1="0" y1="0" x2="1" y2="1">
      <stop offset="0" stop-color="#EEF2FF"/>
      <stop offset="1" stop-color="#E0E7FF"/>
    </linearGradient>
    <linearGradient id="redis" x1="0" y1="0" x2="1" y2="1">
      <stop offset="0" stop-color="#FFF1F2"/>
      <stop offset="1" stop-color="#FFE4E6"/>
    </linearGradient>
    <linearGradient id="mysql" x1="0" y1="0" x2="1" y2="1">
      <stop offset="0" stop-color="#FFFBEB"/>
      <stop offset="1" stop-color="#FEF3C7"/>
    </linearGradient>
    <linearGradient id="observe" x1="0" y1="0" x2="1" y2="1">
      <stop offset="0" stop-color="#F5F3FF"/>
      <stop offset="1" stop-color="#EDE9FE"/>
    </linearGradient>
    <filter id="shadow" x="-20%" y="-20%" width="140%" height="150%">
      <feDropShadow dx="0" dy="7" stdDeviation="10" flood-color="#0F172A" flood-opacity="0.08"/>
    </filter>
    <marker id="arrow-request" viewBox="0 0 10 10" refX="9" refY="5" markerWidth="8" markerHeight="8" orient="auto-start-reverse">
      <path d="M0 0 10 5 0 10Z" fill="#334155"/>
    </marker>
    <marker id="arrow-data" viewBox="0 0 10 10" refX="9" refY="5" markerWidth="8" markerHeight="8" orient="auto-start-reverse">
      <path d="M0 0 10 5 0 10Z" fill="#2563EB"/>
    </marker>
    <marker id="arrow-observe" viewBox="0 0 10 10" refX="9" refY="5" markerWidth="8" markerHeight="8" orient="auto-start-reverse">
      <path d="M0 0 10 5 0 10Z" fill="#7C3AED"/>
    </marker>
    <marker id="arrow-deploy" viewBox="0 0 10 10" refX="9" refY="5" markerWidth="8" markerHeight="8" orient="auto-start-reverse">
      <path d="M0 0 10 5 0 10Z" fill="#0F766E"/>
    </marker>
  </defs>

  <style>
    text { font-family: Inter, Pretendard, ui-sans-serif, system-ui, -apple-system, BlinkMacSystemFont, "Segoe UI", sans-serif; fill: #0F172A; }
    .title { font-size: 38px; font-weight: 800; letter-spacing: -1px; }
    .subtitle { font-size: 18px; fill: #64748B; }
    .boundary-title { font-size: 18px; font-weight: 750; }
    .node-title { font-size: 21px; font-weight: 800; letter-spacing: -0.3px; }
    .node-subtitle { font-size: 15px; fill: #64748B; }
    .chip { font-size: 13px; font-weight: 750; fill: #475569; }
    .label { font-size: 14px; font-weight: 700; fill: #475569; paint-order: stroke; stroke: #F8FAFC; stroke-width: 6px; stroke-linejoin: round; }
    .tiny { font-size: 14px; fill: #64748B; }
    .legend-pill { font-size: 16px; font-weight: 800; letter-spacing: 0.45px; }
    .node { fill: #FFFFFF; stroke: #CBD5E1; stroke-width: 1.5; }
    .request { fill: none; stroke: #334155; stroke-width: 3; marker-end: url(#arrow-request); stroke-linecap: round; stroke-linejoin: round; }
    .data { fill: none; stroke: #2563EB; stroke-width: 3; marker-end: url(#arrow-data); stroke-linecap: round; stroke-linejoin: round; }
    .observe { fill: none; stroke: #7C3AED; stroke-width: 3; marker-end: url(#arrow-observe); stroke-linecap: round; stroke-linejoin: round; }
    .deploy { fill: none; stroke: #0F766E; stroke-width: 2.5; stroke-dasharray: 7 6; marker-end: url(#arrow-deploy); stroke-linecap: round; stroke-linejoin: round; }
  </style>

  <rect width="1600" height="1100" fill="url(#page)"/>

  <text class="title" x="60" y="62">Lohasmeal Commerce Architecture</text>
  <text class="subtitle" x="60" y="94">Naver Cloud · Kubernetes · in-cluster data services · centralized observability</text>

  <!-- CI/CD stays above the runtime boundary: Jenkins publishes an image, then Kubernetes deploys it. -->
  <g filter="url(#shadow)">
    <rect class="node" x="650" y="120" width="180" height="70" rx="18"/>
    <rect x="665" y="133" width="44" height="44" rx="12" fill="#FFF7F5" stroke="#F5C2BB"/>
    <svg x="672" y="140" width="30" height="30" viewBox="0 0 24 24" aria-hidden="true">
      <path fill="#D24939" d="M2.872 24h-.975a3.866 3.866 0 01-.07-.197c-.215-.666-.594-1.49-.692-2.154-.146-.984.78-1.039 1.374-1.465.915-.66 1.635-1.025 2.627-1.62.295-.179 1.182-.624 1.281-.829.201-.408-.345-.982-.49-1.3-.225-.507-.345-.937-.376-1.435-.824-.13-1.455-.627-1.844-1.185-.63-.925-1.066-2.635-.525-3.936.045-.103.254-.305.285-.463.06-.308-.105-.72-.12-1.048-.06-1.692.284-3.15 1.425-3.66.463-1.84 2.113-2.453 3.673-3.367.58-.342 1.224-.562 1.89-.807 2.372-.877 6.027-.712 7.994.783.836.633 2.176 1.97 2.656 2.939 1.262 2.555 1.17 6.825.287 9.934-.12.421-.29 1.032-.533 1.533-.168.35-.689 1.05-.625 1.36.064.314 1.19 1.17 1.432 1.395.434.422 1.26.975 1.324 1.5.07.557-.248 1.336-.41 1.875-.217.721-.436 1.441-.654 2.131H2.87zm11.104-3.54c-.545-.3-1.361-.622-2.065-.757-.87-.164-.78 1.188-.75 1.994.03.643.36 1.316.51 1.744.076.197.09.41.256.449.3.068 1.29-.326 1.575-.479.6-.328 1.064-.844 1.574-1.189.016-.17.016-.34.03-.508a2.648 2.648 0 00-1.095-.277c.314-.15.75-.15 1.035-.332l.016-.193c-.496-.03-.69-.254-1.021-.436zm7.454 2.935a17.78 17.78 0 00.465-1.752c.06-.287.215-.918.178-1.176-.059-.459-.684-.799-1.004-1.086-.584-.525-.95-.975-1.56-1.469-.249.375-.78.615-.983.914 1.447-.689 1.71 2.625 1.141 3.69.09.329.391.45.514.735l-.086.166h1.29c.013 0 .03 0 .044.014zm-6.634-.012c-.05-.074-.1-.135-.15-.209l-.301.195h.45zm2.77 0c.008-.209.018-.404.03-.598-.53.029-.825-.48-1.196-.527-.324-.045-.6.361-1.02.195-.095.105-.183.227-.284.316.154.18.295.375.424.584h.815c.014-.164.135-.285.3-.285.165 0 .284.121.284.27h.66zm2.116 0c-.314-.479-.947-.898-1.68-.555l-.03.541h1.71zm-8.51 0l-.104-.344c-.225-.72-.36-1.26-.405-1.68-.914-.436-1.875-.87-2.654-1.426-.15-.105-1.109-1.35-1.23-1.305-1.739.676-3.359 1.86-4.814 2.984.256.557.48 1.141.69 1.74h8.505zm8.265-2.113c-.029-.512-.164-1.56-.48-1.74-.66-.39-1.846.78-2.34.943.045.15.135.271.15.48.285-.074.645-.029.898.092-.299.03-.629.03-.824.164-.074.195.016.48-.029.764.69.197 1.5.303 2.385.332.164-.227.225-.645.211-1.082zm-4.08-.36c-.044.375.046.51.12.943 1.26.391 1.034-1.74-.135-.959zM8.76 19.5c-.45.457 1.27 1.082 1.814 1.115 0-.29.165-.564.135-.77-.65-.118-1.502-.042-1.945-.347zm5.565.215c0 .043-.061.03-.068.064.58.451 1.014.545 1.802.51.354-.262.67-.563 1.043-.807-.855.074-1.931.607-2.774.23zm3.42-17.726c-1.606-.906-4.35-1.591-6.076-.731-1.38.692-3.27 1.84-3.899 3.292.6 1.402-.166 2.686-.226 4.109-.018.757.36 1.42.391 2.242-.2.338-.825.38-1.26.356-.146-.729-.4-1.549-1.155-1.63-1.064-.116-1.845.764-1.89 1.683-.06 1.08.833 2.864 2.085 2.745.488-.046.608-.54 1.139-.54.285.57-.445.75-.523 1.154-.016.105.06.511.104.705.233.944.744 2.16 1.245 2.88.635.9 1.884 1.051 3.229 1.141.24-.525 1.125-.48 1.706-.346-.691-.27-1.336-.945-1.875-1.529-.615-.676-1.23-1.41-1.261-2.28 1.155 1.604 2.1 3 4.2 3.704 1.59.525 3.45-.254 4.664-1.109.51-.359.811-.93 1.17-1.439 1.35-1.936 1.98-4.71 1.846-7.394-.06-1.111-.06-2.221-.436-2.955-.389-.781-1.695-1.471-2.475-.781-.15-.764.63-1.23 1.545-.96-.66-.854-1.336-1.858-2.266-2.384zM13.58 14.896c.615 1.544 2.724 1.363 4.505 1.323-.084.194-.256.435-.465.515-.57.232-2.145.408-2.937-.012-.506-.27-.824-.873-1.102-1.227-.137-.172-.795-.608-.012-.609zm.164-.87c.893.464 2.52.517 3.731.48.066.267.066.593.068.913-1.55.08-3.386-.304-3.794-1.395h-.005zm6.675-.586c-.473.9-1.145 1.897-2.539 1.928-.023-.284-.045-.735 0-.904 1.064-.103 1.727-.646 2.543-1.017zm-.649-.667c-1.02.66-2.154 1.375-3.824 1.21-.351-.31-.485-1-.14-1.458.181.313.06.885.57.97.944.165 2.038-.579 2.73-.84.42-.713-.046-.976-.42-1.433-.782-.93-1.83-2.1-1.802-3.51.314-.224.346.346.391.45.404.96 1.424 2.175 2.174 3 .18.21.48.39.51.524.092.39-.254.854-.209 1.11zm-13.439-.675c-.314-.184-.393-.99-.768-1.01-.535-.03-.438 1.05-.436 1.68-.37-.33-.435-1.365-.164-1.89-.308-.15-.445.164-.618.284.22-1.59 2.34-.734 1.99.96zM4.713 5.995c-.685.756-.54 2.174-.459 3.188 1.244-.785 2.898.06 2.883 1.394.595-.016.223-.744.115-1.215-.353-1.528.592-3.187.041-4.59-1.064.084-1.939.52-2.578 1.215zm9.12 1.113c.307.562.404 1.148.84 1.57.195.19.574.424.387.95-.045.121-.365.391-.551.45-.674.195-2.254.03-1.721-.81.563.015 1.314.36 1.732-.045-.314-.524-.885-1.53-.674-2.13zm6.198-.013h.068c.33.668.6 1.375 1.004 1.965-.27.628-2.053 1.19-2.023.057.39-.17 1.05-.035 1.395-.25-.193-.556-.48-1.006-.434-1.771zm-6.927-1.617c-1.422-.33-2.131.592-2.56 1.553-.384-.094-.231-.615-.135-.883.255-.701 1.28-1.633 2.119-1.506.359.057.848.386.576.834zM9.642 1.593c-1.56.44-3.56 1.574-4.2 2.974.495-.07.84-.321 1.33-.351.186-.016.428.074.641.015.424-.104.78-1.065 1.102-1.41.31-.345.685-.496.94-.81.167-.09.409-.074.42-.33-.073-.075-.15-.135-.232-.105v.017z"/>
    </svg>
    <text class="node-title" x="720" y="163">Jenkins</text>
  </g>
  <g filter="url(#shadow)">
    <rect class="node" x="870" y="120" width="220" height="70" rx="18"/>
    <rect x="885" y="133" width="44" height="44" rx="12" fill="#EFF8FF" stroke="#BFDBFE"/>
    <svg x="892" y="140" width="30" height="30" viewBox="0 0 24 24" aria-hidden="true">
      <path fill="#2496ED" d="M13.983 11.078h2.119a.186.186 0 00.186-.185V9.006a.186.186 0 00-.186-.186h-2.119a.185.185 0 00-.185.185v1.888c0 .102.083.185.185.185m-2.954-5.43h2.118a.186.186 0 00.186-.186V3.574a.186.186 0 00-.186-.185h-2.118a.185.185 0 00-.185.185v1.888c0 .102.082.185.185.185m0 2.716h2.118a.187.187 0 00.186-.186V6.29a.186.186 0 00-.186-.185h-2.118a.185.185 0 00-.185.185v1.887c0 .102.082.185.185.186m-2.93 0h2.12a.186.186 0 00.184-.186V6.29a.185.185 0 00-.185-.185H8.1a.185.185 0 00-.185.185v1.887c0 .102.083.185.185.186m-2.964 0h2.119a.186.186 0 00.185-.186V6.29a.185.185 0 00-.185-.185H5.136a.186.186 0 00-.186.185v1.887c0 .102.084.185.186.186m5.893 2.715h2.118a.186.186 0 00.186-.185V9.006a.186.186 0 00-.186-.186h-2.118a.185.185 0 00-.185.185v1.888c0 .102.082.185.185.185m-2.93 0h2.12a.185.185 0 00.184-.185V9.006a.185.185 0 00-.184-.186h-2.12a.185.185 0 00-.184.185v1.888c0 .102.083.185.185.185m-2.964 0h2.119a.185.185 0 00.185-.185V9.006a.185.185 0 00-.184-.186h-2.12a.186.186 0 00-.186.186v1.887c0 .102.084.185.186.185m-2.92 0h2.12a.185.185 0 00.184-.185V9.006a.185.185 0 00-.184-.186h-2.12a.185.185 0 00-.184.185v1.888c0 .102.082.185.185.185M23.763 9.89c-.065-.051-.672-.51-1.954-.51-.338.001-.676.03-1.01.087-.248-1.7-1.653-2.53-1.716-2.566l-.344-.199-.226.327c-.284.438-.49.922-.612 1.43-.23.97-.09 1.882.403 2.661-.595.332-1.55.413-1.744.42H.751a.751.751 0 00-.75.748 11.376 11.376 0 00.692 4.062c.545 1.428 1.355 2.48 2.41 3.124 1.18.723 3.1 1.137 5.275 1.137.983.003 1.963-.086 2.93-.266a12.248 12.248 0 003.823-1.389c.98-.567 1.86-1.288 2.61-2.136 1.252-1.418 1.998-2.997 2.553-4.4h.221c1.372 0 2.215-.549 2.68-1.009.309-.293.55-.65.707-1.046l.098-.288Z"/>
    </svg>
    <text class="node-title" x="940" y="163">Docker Hub</text>
  </g>

  <g transform="translate(870 40)">
    <rect width="140" height="40" rx="20" fill="#E2E8F0"/>
    <path d="M13 20h20m-5-5 5 5-5 5" fill="none" stroke="#334155" stroke-width="2.2" stroke-linecap="round" stroke-linejoin="round"/>
    <text class="legend-pill" x="48" y="26">REQUEST</text>
  </g>
  <g transform="translate(1022 40)">
    <rect width="108" height="40" rx="20" fill="#DBEAFE"/>
    <path d="M13 20h20m-5-5 5 5-5 5" fill="none" stroke="#2563EB" stroke-width="2.2" stroke-linecap="round" stroke-linejoin="round"/>
    <text class="legend-pill" x="48" y="26" fill="#1D4ED8">DATA</text>
  </g>
  <g transform="translate(1142 40)">
    <rect width="214" height="40" rx="20" fill="#EDE9FE"/>
    <path d="M13 20h20m-5-5 5 5-5 5" fill="none" stroke="#7C3AED" stroke-width="2.2" stroke-linecap="round" stroke-linejoin="round"/>
    <text class="legend-pill" x="48" y="26" fill="#5B21B6">OBSERVABILITY</text>
  </g>
  <g transform="translate(1368 40)">
    <rect width="172" height="40" rx="20" fill="#CCFBF1"/>
    <path d="M13 20h11" fill="none" stroke="#0F766E" stroke-width="2.2" stroke-dasharray="4 3" stroke-linecap="round"/>
    <path d="M24 20h9m-5-5 5 5-5 5" fill="none" stroke="#0F766E" stroke-width="2.2" stroke-linecap="round" stroke-linejoin="round"/>
    <text class="legend-pill" x="48" y="26" fill="#115E59">DEPLOYMENT</text>
  </g>

  <g transform="translate(0 120)">
  <!-- Naver Cloud contains the NKS cluster and its managed Object Storage. -->
  <rect x="230" y="120" width="1330" height="580" rx="28" fill="#FFFFFF" fill-opacity="0.58" stroke="#03C75A" stroke-width="2"/>
  <rect x="255" y="100" width="242" height="42" rx="21" fill="#E8FFF0" stroke="#03C75A"/>
  <circle cx="278" cy="121" r="7" fill="#03C75A"/>
  <text class="boundary-title" x="296" y="127">NAVER Cloud Platform</text>

  <g transform="translate(0 30)">
  <!-- Application and stateful services share one Kubernetes boundary. -->
  <rect x="250" y="155" width="1290" height="430" rx="24" fill="#EEF2FF" fill-opacity="0.45" stroke="#6366F1" stroke-width="2"/>
  <rect x="275" y="135" width="340" height="42" rx="21" fill="#E0E7FF" stroke="#818CF8"/>
  <svg x="284" y="143" width="26" height="26" viewBox="0 0 24 24" aria-hidden="true">
    <path fill="#326CE5" d="M10.204 14.35l.007.01-.999 2.413a5.171 5.171 0 0 1-2.075-2.597l2.578-.437.004.005a.44.44 0 0 1 .484.606zm-.833-2.129a.44.44 0 0 0 .173-.756l.002-.011L7.585 9.7a5.143 5.143 0 0 0-.73 3.255l2.514-.725.002-.009zm1.145-1.98a.44.44 0 0 0 .699-.337l.01-.005.15-2.62a5.144 5.144 0 0 0-3.01 1.442l2.147 1.523.004-.002zm.76 2.75.723.349.722-.347.18-.78-.5-.623h-.804l-.5.623.179.779zm1.5-3.095a.44.44 0 0 0 .7.336l.008.003 2.134-1.513a5.188 5.188 0 0 0-2.992-1.442l.148 2.615.002.001zm10.876 5.97-5.773 7.181a1.6 1.6 0 0 1-1.248.594l-9.261.003a1.6 1.6 0 0 1-1.247-.596l-5.776-7.18a1.583 1.583 0 0 1-.307-1.34L2.1 5.573c.108-.47.425-.864.863-1.073L11.305.513a1.606 1.606 0 0 1 1.385 0l8.345 3.985c.438.209.755.604.863 1.073l2.062 8.955c.108.47-.005.963-.308 1.34zm-3.289-2.057c-.042-.01-.103-.026-.145-.034-.174-.033-.315-.025-.479-.038-.35-.037-.638-.067-.895-.148-.105-.04-.18-.165-.216-.216l-.201-.059a6.45 6.45 0 0 0-.105-2.332 6.465 6.465 0 0 0-.936-2.163c.052-.047.15-.133.177-.159.008-.09.001-.183.094-.282.197-.185.444-.338.743-.522.142-.084.273-.137.415-.242.032-.024.076-.062.11-.089.24-.191.295-.52.123-.736-.172-.216-.506-.236-.745-.045-.034.027-.08.062-.111.088-.134.116-.217.23-.33.35-.246.25-.45.458-.673.609-.097.056-.239.037-.303.033l-.19.135a6.545 6.545 0 0 0-4.146-2.003l-.012-.223c-.065-.062-.143-.115-.163-.25-.022-.268.015-.557.057-.905.023-.163.061-.298.068-.475.001-.04-.001-.099-.001-.142 0-.306-.224-.555-.5-.555-.275 0-.499.249-.499.555l.001.014c0 .041-.002.092 0 .128.006.177.044.312.067.475.042.348.078.637.056.906a.545.545 0 0 1-.162.258l-.012.211a6.424 6.424 0 0 0-4.166 2.003 8.373 8.373 0 0 1-.18-.128c-.09.012-.18.04-.297-.029-.223-.15-.427-.358-.673-.608-.113-.12-.195-.234-.329-.349-.03-.026-.077-.062-.111-.088a.594.594 0 0 0-.348-.132.481.481 0 0 0-.398.176c-.172.216-.117.546.123.737l.007.005.104.083c.142.105.272.159.414.242.299.185.546.338.743.522.076.082.09.226.1.288l.16.143a6.462 6.462 0 0 0-1.02 4.506l-.208.06c-.055.072-.133.184-.215.217-.257.081-.546.11-.895.147-.164.014-.305.006-.48.039-.037.007-.09.02-.133.03l-.004.002-.007.002c-.295.071-.484.342-.423.608.061.267.349.429.645.365l.007-.001.01-.003.129-.029c.17-.046.294-.113.448-.172.33-.118.604-.217.87-.256.112-.009.23.069.288.101l.217-.037a6.5 6.5 0 0 0 2.88 3.596l-.09.218c.033.084.069.199.044.282-.097.252-.263.517-.452.813-.091.136-.185.242-.268.399-.02.037-.045.095-.064.134-.128.275-.034.591.213.71.248.12.556-.007.69-.282v-.002c.02-.039.046-.09.062-.127.07-.162.094-.301.144-.458.132-.332.205-.68.387-.897.05-.06.13-.082.215-.105l.113-.205a6.453 6.453 0 0 0 4.609.012l.106.192c.086.028.18.042.256.155.136.232.229.507.342.84.05.156.074.295.145.457.016.037.043.09.062.129.133.276.442.402.69.282.247-.118.341-.435.213-.71-.02-.039-.045-.096-.065-.134-.083-.156-.177-.261-.268-.398-.19-.296-.346-.541-.443-.793-.04-.13.007-.21.038-.294-.018-.022-.059-.144-.083-.202a6.499 6.499 0 0 0 2.88-3.622c.064.01.176.03.213.038.075-.05.144-.114.28-.104.266.039.54.138.87.256.154.06.277.128.448.173.036.01.088.019.13.028l.009.003.007.001c.297.064.584-.098.645-.365.06-.266-.128-.537-.423-.608zM16.4 9.701l-1.95 1.746v.005a.44.44 0 0 0 .173.757l.003.01 2.526.728a5.199 5.199 0 0 0-.108-1.674A5.208 5.208 0 0 0 16.4 9.7zm-4.013 5.325a.437.437 0 0 0-.404-.232.44.44 0 0 0-.372.233h-.002l-1.268 2.292a5.164 5.164 0 0 0 3.326.003l-1.27-2.296h-.01zm1.888-1.293a.44.44 0 0 0-.27.036.44.44 0 0 0-.214.572l-.003.004 1.01 2.438a5.15 5.15 0 0 0 2.081-2.615l-2.6-.44-.004.005z"/>
  </svg>
  <text class="boundary-title" x="316" y="162">Kubernetes Cluster</text>

  <g transform="translate(0 25)">
  <rect x="270" y="185" width="630" height="350" rx="20" fill="#FFFFFF" fill-opacity="0.78" stroke="#A5B4FC" stroke-width="1.5"/>
  <rect x="295" y="172" width="220" height="32" rx="16" fill="#EEF2FF" stroke="#A5B4FC"/>
  <circle cx="313" cy="188" r="5" fill="#4F46E5"/>
  <text class="chip" x="327" y="193">APPLICATION WORKLOADS</text>

  <rect x="920" y="185" width="600" height="350" rx="20" fill="#FFFFFF" fill-opacity="0.78" stroke="#93C5FD" stroke-width="1.5"/>
  <rect x="945" y="172" width="278" height="32" rx="16" fill="#DBEAFE" stroke="#93C5FD"/>
  <circle cx="963" cy="188" r="5" fill="#2563EB"/>
  <text class="chip" x="977" y="193">STATEFUL WORKLOADS · IN-CLUSTER</text>

  <g filter="url(#shadow)">
    <rect class="node" x="290" y="215" width="180" height="90" rx="18"/>
    <rect x="310" y="235" width="42" height="42" rx="11" fill="#ECFDF5" stroke="#A7F3D0"/>
    <svg x="318" y="243" width="26" height="26" viewBox="0 0 24 24" aria-hidden="true">
      <path fill="#009639" d="M12 0 1.605 6v12L12 24l10.395-6V6L12 0zm6 16.59c0 .705-.646 1.29-1.529 1.29-.631 0-1.351-.255-1.801-.81l-6-7.141v6.66c0 .721-.57 1.29-1.274 1.29H7.32c-.721 0-1.29-.6-1.29-1.29V7.41c0-.705.63-1.29 1.5-1.29.646 0 1.38.255 1.83.81l5.97 7.141V7.41c0-.721.6-1.29 1.29-1.29h.075c.72 0 1.29.6 1.29 1.29v9.18H18z"/>
    </svg>
    <text class="node-title" x="370" y="253">Nginx</text>
    <text class="node-subtitle" x="370" y="276">Ingress</text>
  </g>

  <g filter="url(#shadow)">
    <rect x="530" y="205" width="310" height="110" rx="18" fill="url(#workload)" stroke="#A5B4FC" stroke-width="1.5"/>
    <rect x="552" y="228" width="46" height="46" rx="12" fill="#ECFDF5" stroke="#A7F3D0"/>
    <svg x="560" y="239" width="30" height="24" viewBox="0 0 24 24" aria-hidden="true">
      <path fill="#00DC82" d="M13.4642 19.8295h8.9218c.2834 0 .5618-.0723.8072-.2098a1.5899 1.5899 0 0 0 .5908-.5732 1.5293 1.5293 0 0 0 .216-.783 1.529 1.529 0 0 0-.2167-.7828L17.7916 7.4142a1.5904 1.5904 0 0 0-.5907-.573 1.6524 1.6524 0 0 0-.807-.2099c-.2833 0-.5616.0724-.807.2098a1.5904 1.5904 0 0 0-.5907.5731L13.4642 9.99l-2.9954-5.0366a1.5913 1.5913 0 0 0-.591-.573 1.6533 1.6533 0 0 0-.8071-.2098c-.2834 0-.5617.0723-.8072.2097a1.5913 1.5913 0 0 0-.591.573L.2168 17.4808A1.5292 1.5292 0 0 0 0 18.2635c-.0001.2749.0744.545.216.783a1.59 1.59 0 0 0 .5908.5732c.2454.1375.5238.2098.8072.2098h5.6003c2.219 0 3.8554-.9454 4.9813-2.7899l2.7337-4.5922L16.3935 9.99l4.3944 7.382h-5.8586ZM7.123 17.3694l-3.9083-.0009 5.8586-9.8421 2.9232 4.921-1.9572 3.2892c-.7478 1.1967-1.5972 1.6328-2.9163 1.6328z"/>
    </svg>
    <text class="node-title" x="618" y="251">Nuxt</text>
    <text class="node-subtitle" x="618" y="276">Client Service · storefront</text>
    <rect x="552" y="282" width="80" height="22" rx="11" fill="#FFFFFF" fill-opacity="0.85"/>
    <text class="chip" x="592" y="297" text-anchor="middle">WEB</text>
  </g>

  <g filter="url(#shadow)">
    <rect class="node" x="290" y="390" width="180" height="90" rx="18"/>
    <rect x="310" y="410" width="42" height="42" rx="11" fill="#F0FDF4" stroke="#BBF7D0"/>
    <svg x="317" y="417" width="28" height="28" viewBox="0 0 24 24" aria-hidden="true">
      <path fill="#65A30D" d="M12 0C5.383 0 0 5.383 0 12s5.383 12 12 12c6.616 0 12-5.383 12-12S18.616 0 12 0zm0 1.144c5.995 0 10.856 4.86 10.856 10.856 0 5.995-4.86 10.856-10.856 10.856-5.996 0-10.856-4.86-10.856-10.856C1.144 6.004 6.004 1.144 12 1.144zM8.37 5.868a6.707 6.707 0 0 0-.423.005c-.983.056-1.573.517-1.735 1.472-.115.665-.096 1.348-.143 2.017-.013.35-.05.697-.115 1.038-.134.609-.397.798-1.016.83a2.65 2.65 0 0 0-.244.042v1.463c1.126.055 1.278.452 1.37 1.629.033.429-.013.858.015 1.287.018.406.073.808.156 1.2.259 1.075 1.307 1.435 2.575 1.218v-1.283c-.203 0-.383.005-.558 0-.43-.013-.591-.12-.632-.535-.056-.535-.042-1.08-.075-1.62-.064-1.001-.175-1.988-1.153-2.625.503-.37.868-.812.983-1.398.083-.41.134-.821.166-1.237.028-.415-.023-.84.014-1.25.06-.665.102-.937.9-.91.12 0 .235-.017.369-.027v-1.31c-.16 0-.31-.004-.454-.006zm7.593.009a4.247 4.247 0 0 0-.813.06v1.274c.245 0 .434 0 .623.005.328.004.577.13.61.494.032.332.031.669.064 1.006.065.669.101 1.347.217 2.007.102.544.475.95.941 1.283-.817.549-1.057 1.333-1.098 2.215-.023.604-.037 1.213-.069 1.822-.028.554-.222.734-.78.748-.157.004-.31.018-.484.028v1.305c.327 0 .627.019.927 0 .932-.055 1.495-.507 1.68-1.412.078-.498.124-1 .138-1.504.032-.461.028-.927.074-1.384.069-.715.397-1.01 1.112-1.057a.972.972 0 0 0 .199-.046v-1.463c-.12-.014-.204-.027-.291-.032-.536-.023-.804-.203-.937-.71a5.146 5.146 0 0 1-.152-.993c-.037-.618-.033-1.241-.074-1.86-.08-1.192-.794-1.753-1.887-1.786zm-6.89 5.28a.844.844 0 0 0-.083 1.684h.055a.83.83 0 0 0 .877-.78v-.046a.845.845 0 0 0-.83-.858zm2.911 0a.808.808 0 0 0-.834.78c0 .027 0 .05.004.078 0 .503.342.826.859.826.507 0 .826-.332.826-.853-.005-.503-.342-.836-.855-.831zm2.963 0a.861.861 0 0 0-.876.835c0 .47.378.849.849.849h.009c.425.074.853-.337.881-.83.023-.457-.392-.854-.863-.854z"/>
    </svg>
    <text class="node-title" x="370" y="430">Swagger</text>
    <text class="node-subtitle" x="370" y="453">API Docs</text>
  </g>

  <g filter="url(#shadow)">
    <rect x="530" y="345" width="310" height="140" rx="18" fill="url(#workload)" stroke="#A5B4FC" stroke-width="1.5"/>
    <rect x="552" y="368" width="46" height="46" rx="12" fill="#F0FDF4" stroke="#BBF7D0"/>
    <svg x="560" y="376" width="30" height="30" viewBox="0 0 24 24" aria-hidden="true">
      <path fill="#6DB33F" d="M21.8537 1.4158a10.4504 10.4504 0 0 1-1.284 2.2471A11.9666 11.9666 0 1 0 3.8518 20.7757l.4445.3951a11.9543 11.9543 0 0 0 19.6316-8.2971c.3457-3.0126-.568-6.8649-2.0743-11.458zM5.5805 20.8745a1.0174 1.0174 0 1 1-.1482-1.4323 1.0396 1.0396 0 0 1 .1482 1.4323zm16.1991-3.5806c-2.9385 3.9263-9.2601 2.5928-13.2852 2.7904 0 0-.7161.0494-1.4323.1481 0 0 .2717-.1234.6174-.2469 2.8398-.9877 4.1732-1.1853 5.9018-2.0743 3.2349-1.6545 6.4698-5.2844 7.1118-9.0379-1.2347 3.6053-4.9881 6.7167-8.3959 7.9761-2.3459.8643-6.5685 1.7039-6.5685 1.7039l-.1729-.0988c-2.8645-1.4076-2.9632-7.6304 2.2718-9.6306 2.2966-.889 4.4696-.395 6.9637-.9877 2.6422-.6174 5.7043-2.5929 6.939-5.1857 1.3828 4.1732 3.062 10.643.0493 14.6434z"/>
    </svg>
    <text class="node-title" x="618" y="392">Spring</text>
    <text class="node-subtitle" x="618" y="417">Server Service</text>
    <text class="node-subtitle" x="552" y="451">Order · payment · delivery</text>
    <rect x="552" y="458" width="80" height="22" rx="11" fill="#FFFFFF" fill-opacity="0.85"/>
    <text class="chip" x="592" y="473" text-anchor="middle">API</text>
  </g>

  <g>
    <rect x="290" y="500" width="550" height="28" rx="14" fill="#F5F3FF" stroke="#C4B5FD"/>
    <circle cx="313" cy="514" r="5" fill="#7C3AED"/>
    <text class="chip" x="328" y="519">FILEBEAT · METRICBEAT</text>
    <text class="node-subtitle" x="520" y="519">logs · infrastructure metrics</text>
  </g>

  <g filter="url(#shadow)">
    <rect x="950" y="210" width="250" height="245" rx="20" fill="url(#redis)" stroke="#FDA4AF" stroke-width="1.5"/>
    <rect x="963" y="224" width="44" height="44" rx="11" fill="#FFFFFF" stroke="#FECDD3"/>
    <svg x="969" y="229" width="32" height="34" viewBox="0 0 128 128" aria-hidden="true">
      <path fill="#A41E11" d="M121.8 93.1c-6.7 3.5-41.4 17.7-48.8 21.6-7.4 3.9-11.5 3.8-17.3 1S13 98.1 6.3 94.9c-3.3-1.6-5-2.9-5-4.2V78s48-10.5 55.8-13.2c7.8-2.8 10.4-2.9 17-.5s46.1 9.5 52.6 11.9v12.5c0 1.3-1.5 2.7-4.9 4.4z"/>
      <path fill="#D82C20" d="M121.8 80.5C115.1 84 80.4 98.2 73 102.1c-7.4 3.9-11.5 3.8-17.3 1-5.8-2.8-42.7-17.7-49.4-20.9C-.3 79-.5 76.8 6 74.3c6.5-2.6 43.2-17 51-19.7 7.8-2.8 10.4-2.9 17-.5s41.1 16.1 47.6 18.5c6.7 2.4 6.9 4.4.2 7.9z"/>
      <path fill="#A41E11" d="M121.8 72.5C115.1 76 80.4 90.2 73 94.1c-7.4 3.8-11.5 3.8-17.3 1C49.9 92.3 13 77.4 6.3 74.2c-3.3-1.6-5-2.9-5-4.2V57.3s48-10.5 55.8-13.2c7.8-2.8 10.4-2.9 17-.5s46.1 9.5 52.6 11.9V68c0 1.3-1.5 2.7-4.9 4.5z"/>
      <path fill="#D82C20" d="M121.8 59.8c-6.7 3.5-41.4 17.7-48.8 21.6-7.4 3.8-11.5 3.8-17.3 1C49.9 79.6 13 64.7 6.3 61.5s-6.8-5.4-.3-7.9c6.5-2.6 43.2-17 51-19.7 7.8-2.8 10.4-2.9 17-.5s41.1 16.1 47.6 18.5c6.7 2.4 6.9 4.4.2 7.9z"/>
      <path fill="#A41E11" d="M121.8 51c-6.7 3.5-41.4 17.7-48.8 21.6-7.4 3.8-11.5 3.8-17.3 1C49.9 70.9 13 56 6.3 52.8c-3.3-1.6-5.1-2.9-5.1-4.2V35.9s48-10.5 55.8-13.2c7.8-2.8 10.4-2.9 17-.5s46.1 9.5 52.6 11.9v12.5c.1 1.3-1.4 2.6-4.8 4.4z"/>
      <path fill="#D82C20" d="M121.8 38.3C115.1 41.8 80.4 56 73 59.9c-7.4 3.8-11.5 3.8-17.3 1S13 43.3 6.3 40.1s-6.8-5.4-.3-7.9c6.5-2.6 43.2-17 51-19.7 7.8-2.8 10.4-2.9 17-.5s41.1 16.1 47.6 18.5c6.7 2.4 6.9 4.4.2 7.8z"/>
      <path fill="#FFFFFF" d="m80.4 26.1-10.8 1.2-2.5 5.8-3.9-6.5-12.5-1.1 9.3-3.4-2.8-5.2 8.8 3.4 8.2-2.7-2.2 5.4zM66.5 54.5l-20.3-8.4 29.1-4.4z"/>
      <ellipse cx="38.4" cy="35.4" rx="15.5" ry="6" fill="#FFFFFF"/>
      <path fill="#7A0C00" d="m93.3 27.7 17.2 6.8-17.2 6.8z"/>
      <path fill="#AD2115" d="m74.3 35.3 19-7.6v13.6l-1.9.8z"/>
    </svg>
    <text class="node-title" x="1018" y="252">Redis HA</text>
    <rect x="970" y="270" width="210" height="28" rx="14" fill="#FFFFFF" fill-opacity="0.88"/>
    <text class="chip" x="1075" y="289" text-anchor="middle">HAProxy</text>
    <rect x="970" y="316" width="98" height="54" rx="12" fill="#FFFFFF" fill-opacity="0.88"/>
    <rect x="1082" y="316" width="98" height="54" rx="12" fill="#FFFFFF" fill-opacity="0.88"/>
    <text class="chip" x="1019" y="349" text-anchor="middle">PRIMARY</text>
    <text class="chip" x="1131" y="349" text-anchor="middle">REPLICA</text>
    <rect x="970" y="392" width="210" height="28" rx="14" fill="#FFE4E6" stroke="#FDA4AF"/>
    <text class="chip" x="1075" y="411" text-anchor="middle" fill="#BE123C">SENTINEL · MONITOR / FAILOVER</text>
  </g>

  <g filter="url(#shadow)">
    <rect x="1230" y="210" width="260" height="245" rx="20" fill="url(#mysql)" stroke="#FCD34D" stroke-width="1.5"/>
    <rect x="1247" y="228" width="38" height="36" rx="10" fill="#FFFFFF" stroke="#FDE68A"/>
    <svg x="1252" y="234" width="28" height="28" viewBox="0 0 24 24" aria-hidden="true">
      <path fill="#4479A1" d="M16.405 5.501c-.115 0-.193.014-.274.033v.013h.014c.054.104.146.18.214.273.054.107.1.214.154.32l.014-.015c.094-.066.14-.172.14-.333-.04-.047-.046-.094-.08-.14-.04-.067-.126-.1-.18-.153zM5.77 18.695h-.927a50.854 50.854 0 00-.27-4.41h-.008l-1.41 4.41H2.45l-1.4-4.41h-.01a72.892 72.892 0 00-.195 4.41H0c.055-1.966.192-3.81.41-5.53h1.15l1.335 4.064h.008l1.347-4.064h1.095c.242 2.015.384 3.86.428 5.53zm4.017-4.08c-.378 2.045-.876 3.533-1.492 4.46-.482.716-1.01 1.073-1.583 1.073-.153 0-.34-.046-.566-.138v-.494c.11.017.24.026.386.026.268 0 .483-.075.647-.222.197-.18.295-.382.295-.605 0-.155-.077-.47-.23-.944L6.23 14.615h.91l.727 2.36c.164.536.233.91.205 1.123.4-1.064.678-2.227.835-3.483zm12.325 4.08h-2.63v-5.53h.885v4.85h1.745zm-3.32.135l-1.016-.5c.09-.076.177-.158.255-.25.433-.506.648-1.258.648-2.253 0-1.83-.718-2.746-2.155-2.746-.704 0-1.254.232-1.65.697-.43.508-.646 1.256-.646 2.245 0 .972.19 1.686.574 2.14.35.41.877.615 1.583.615.264 0 .506-.033.725-.098l1.325.772.36-.622zM15.5 17.588c-.225-.36-.337-.94-.337-1.736 0-1.393.424-2.09 1.27-2.09.443 0 .77.167.977.5.224.362.336.936.336 1.723 0 1.404-.424 2.108-1.27 2.108-.445 0-.77-.167-.978-.5zm-1.658-.425c0 .47-.172.856-.516 1.156-.344.3-.803.45-1.384.45-.543 0-1.064-.172-1.573-.515l.237-.476c.438.22.833.328 1.19.328.332 0 .593-.073.783-.22a.754.754 0 00.3-.615c0-.33-.23-.61-.648-.845-.388-.213-1.163-.657-1.163-.657-.422-.307-.632-.636-.632-1.177 0-.45.157-.81.47-1.085.315-.278.72-.415 1.22-.415.512 0 .98.136 1.4.41l-.213.476a2.726 2.726 0 00-1.064-.23c-.283 0-.502.068-.654.206a.685.685 0 00-.248.524c0 .328.234.61.666.85.393.215 1.187.67 1.187.67.433.305.648.63.648 1.168zm9.382-5.852c-.535-.014-.95.04-1.297.188-.1.04-.26.04-.274.167.055.053.063.14.11.214.08.134.218.313.346.407.14.11.28.216.427.31.26.16.555.255.81.416.145.094.293.213.44.313.073.05.12.14.214.172v-.02c-.046-.06-.06-.147-.105-.214-.067-.067-.134-.127-.2-.193a3.223 3.223 0 00-.695-.675c-.214-.146-.682-.35-.77-.595l-.013-.014c.146-.013.32-.066.46-.106.227-.06.435-.047.67-.106.106-.027.213-.06.32-.094v-.06c-.12-.12-.21-.283-.334-.395a8.867 8.867 0 00-1.104-.823c-.21-.134-.476-.22-.697-.334-.08-.04-.214-.06-.26-.127-.12-.146-.19-.34-.275-.514a17.69 17.69 0 01-.547-1.163c-.12-.262-.193-.523-.34-.763-.69-1.137-1.437-1.826-2.586-2.5-.247-.14-.543-.2-.856-.274-.167-.008-.334-.02-.5-.027-.11-.047-.216-.174-.31-.235-.38-.24-1.364-.76-1.644-.072-.18.434.267.862.422 1.082.115.153.26.328.34.5.047.116.06.235.107.356.106.294.207.622.347.897.073.14.153.287.247.413.054.073.146.107.167.227-.094.136-.1.334-.154.5-.24.757-.146 1.693.194 2.25.107.166.362.534.703.393.3-.12.234-.5.32-.835.02-.08.007-.133.048-.187v.015c.094.188.188.367.274.555.206.328.566.668.867.895.16.12.287.328.487.402v-.02h-.015c-.043-.058-.1-.086-.154-.133a3.445 3.445 0 01-.35-.4 8.76 8.76 0 01-.747-1.218c-.11-.21-.202-.436-.29-.643-.04-.08-.04-.2-.107-.24-.1.146-.247.273-.32.453-.127.288-.14.642-.188 1.01-.027.007-.014 0-.027.014-.214-.052-.287-.274-.367-.46-.2-.475-.233-1.238-.06-1.785.047-.14.247-.582.167-.716-.042-.127-.174-.2-.247-.303a2.478 2.478 0 01-.24-.427c-.16-.374-.24-.788-.414-1.162-.08-.173-.22-.354-.334-.513-.127-.18-.267-.307-.368-.52-.033-.073-.08-.194-.027-.274.014-.054.042-.075.094-.09.088-.072.335.022.422.062.247.1.455.194.662.334.094.066.195.193.315.226h.14c.214.047.455.014.655.073.355.114.675.28.962.46a5.953 5.953 0 012.085 2.286c.08.154.115.295.188.455.14.33.313.663.455.982.14.315.275.636.476.897.1.14.502.213.682.286.133.06.34.115.46.188.23.14.454.3.67.454.11.076.443.243.463.378z"/>
    </svg>
    <text class="node-title" x="1295" y="252">MySQL HA</text>
    <rect x="1250" y="270" width="220" height="30" rx="15" fill="#FFFFFF" fill-opacity="0.88"/>
    <text class="chip" x="1360" y="290" text-anchor="middle">MYSQL ROUTER</text>
    <rect x="1250" y="320" width="103" height="58" rx="12" fill="#FFFFFF" fill-opacity="0.88"/>
    <rect x="1367" y="320" width="103" height="58" rx="12" fill="#FFFFFF" fill-opacity="0.88"/>
    <text class="chip" x="1302" y="355" text-anchor="middle">PRIMARY</text>
    <text class="chip" x="1419" y="355" text-anchor="middle">REPLICA</text>
    <text class="node-subtitle" x="1360" y="420" text-anchor="middle">replicated data</text>
  </g>

  <path class="request" d="M215 270H250V260H290"/>
  <path class="request" d="M470 260H530"/>
  <path class="request" d="M685 315V345"/>
  <path class="request" d="M215 450H290"/>
  <path class="request" d="M470 435H530"/>
  <text class="label" x="232" y="252">HTTPS</text>
  <text class="label" x="487" y="244">route</text>
  <text class="label" x="696" y="337">API</text>

  <path class="data" d="M840 385H900V300H950"/>
  <path class="data" d="M840 415H910V470H1215V350H1230"/>
  <path class="data" d="M840 455H930V603H975"/>
  <text class="label" x="861" y="371" fill="#1D4ED8">cache</text>
  <text class="label" x="938" y="458" fill="#1D4ED8">transactions</text>
  <text class="label" x="855" y="488" fill="#1D4ED8">assets</text>

  <g filter="url(#shadow)">
    <rect class="node" x="45" y="225" width="170" height="90" rx="18"/>
    <circle cx="87" cy="264" r="17" fill="#E2E8F0"/>
    <circle cx="87" cy="258" r="6" fill="#475569"/>
    <path d="M75 277c2-8 7-11 12-11s10 3 12 11" fill="none" stroke="#475569" stroke-width="2.4" stroke-linecap="round"/>
    <text class="node-title" x="116" y="270">User</text>
    <text class="node-subtitle" x="70" y="298">Web storefront</text>
  </g>

  <g filter="url(#shadow)">
    <rect class="node" x="45" y="405" width="170" height="90" rx="18"/>
    <rect x="69" y="427" width="36" height="36" rx="10" fill="#ECFDF5"/>
    <path d="M81 437l-6 8 6 8M93 437l6 8-6 8" fill="none" stroke="#059669" stroke-width="2.4" stroke-linecap="round" stroke-linejoin="round"/>
    <text class="node-title" x="116" y="450">Developer</text>
    <text class="node-subtitle" x="70" y="478">API consumer</text>
  </g>

  <!-- Object Storage is managed by Naver Cloud, outside the Kubernetes cluster. -->
  <g filter="url(#shadow)">
    <rect class="node" x="975" y="575" width="525" height="55" rx="17"/>
    <rect x="995" y="586" width="34" height="34" rx="9" fill="#ECFEFF"/>
    <path d="M1003 598h18v13h-18zM1007 595h10" fill="none" stroke="#0891B2" stroke-width="2" stroke-linecap="round" stroke-linejoin="round"/>
    <text class="node-title" x="1045" y="600">Naver Cloud Object Storage</text>
    <text class="node-subtitle" x="1045" y="619">managed uploads · media assets</text>
  </g>

  <rect x="250" y="700" width="1290" height="150" rx="24" fill="#FFFFFF" fill-opacity="0.78" stroke="#C4B5FD" stroke-width="2"/>
  <rect x="276" y="680" width="220" height="42" rx="21" fill="#EDE9FE" stroke="#C4B5FD"/>
  <circle cx="299" cy="701" r="7" fill="#7C3AED"/>
  <text class="boundary-title" x="317" y="707">Observability</text>

  <g filter="url(#shadow)">
    <rect x="290" y="735" width="200" height="80" rx="18" fill="url(#observe)" stroke="#C4B5FD"/>
    <rect x="309" y="757" width="36" height="36" rx="10" fill="#FFFFFF" stroke="#DDD6FE"/>
    <svg x="315" y="763" width="24" height="24" viewBox="0 0 24 24" aria-hidden="true">
      <path fill="#362D59" d="M13.91 2.505c-.873-1.448-2.972-1.448-3.844 0L6.904 7.92a15.478 15.478 0 0 1 8.53 12.811h-2.221A13.301 13.301 0 0 0 5.784 9.814l-2.926 5.06a7.65 7.65 0 0 1 4.435 5.848H2.194a.365.365 0 0 1-.298-.534l1.413-2.402a5.16 5.16 0 0 0-1.614-.913L.296 19.275a2.182 2.182 0 0 0 .812 2.999 2.24 2.24 0 0 0 1.086.288h6.983a9.322 9.322 0 0 0-3.845-8.318l1.11-1.922a11.47 11.47 0 0 1 4.95 10.24h5.915a17.242 17.242 0 0 0-7.885-15.28l2.244-3.845a.37.37 0 0 1 .504-.13c.255.14 9.75 16.708 9.928 16.9a.365.365 0 0 1-.327.543h-2.287c.029.612.029 1.223 0 1.831h2.297a2.206 2.206 0 0 0 1.922-3.31z"/>
    </svg>
    <text class="node-title" x="357" y="772">Sentry</text>
    <text class="node-subtitle" x="357" y="796">Errors</text>
  </g>
  <g filter="url(#shadow)">
    <rect x="545" y="735" width="220" height="80" rx="18" fill="url(#observe)" stroke="#C4B5FD"/>
    <rect x="564" y="757" width="36" height="36" rx="10" fill="#FFFFFF" stroke="#DDD6FE"/>
    <svg x="570" y="763" width="24" height="24" viewBox="0 0 24 24" aria-hidden="true">
      <path fill="#005571" d="M20.345 16.33l-3.959-.926-1.05-2.01 5.177-4.535a3.962 3.962 0 012.559 3.702 4.006 4.006 0 01-2.727 3.77m-2.976 4.68c-.616 0-1.22-.207-1.714-.587l.782-4.077 3.596.841c.115.31.172.642.172.987a2.839 2.839 0 01-2.836 2.836m-2.637-.586a5.92 5.92 0 01-4.908 2.6A5.947 5.947 0 014 15.905l5.167-4.67 5.272 2.403 1.167 2.23zM.928 11.443a4.007 4.007 0 012.726-3.77l3.95.933.927 1.98-5.05 4.565a3.97 3.97 0 01-2.553-3.708m5.703-8.45a2.841 2.841 0 011.723.58l-.789 4.092-3.598-.85a2.842 2.842 0 01-.172-.986A2.84 2.84 0 016.63 2.992m2.66.59A5.92 5.92 0 0120.1 6.93c0 .4-.038.781-.114 1.164l-5.299 4.643-5.251-2.394-1.026-2.19zM24 12.571a4.723 4.723 0 00-3.124-4.454 6.695 6.695 0 00.126-1.29A6.789 6.789 0 0014.22.047 6.769 6.769 0 008.727 2.86a3.586 3.586 0 00-2.204-.754A3.604 3.604 0 003.15 6.959 4.786 4.786 0 000 11.431 4.727 4.727 0 003.139 15.9a6.876 6.876 0 00-.124 1.289 6.773 6.773 0 006.765 6.765c2.19 0 4.22-1.052 5.49-2.824a3.568 3.568 0 002.207.769 3.603 3.603 0 003.374-4.854A4.785 4.785 0 0024 12.572"/>
    </svg>
    <text class="node-title" x="612" y="772">APM Server</text>
    <text class="node-subtitle" x="612" y="796">Traces · metrics</text>
  </g>
  <g filter="url(#shadow)">
    <rect x="820" y="735" width="250" height="80" rx="18" fill="url(#observe)" stroke="#C4B5FD"/>
    <rect x="839" y="757" width="36" height="36" rx="10" fill="#FFFFFF" stroke="#DDD6FE"/>
    <svg x="845" y="763" width="24" height="24" viewBox="0 0 128 128" aria-hidden="true">
      <path fill="#343741" d="M4 64c0 5.535.777 10.879 2.098 16H84c8.836 0 16-7.164 16-16s-7.164-16-16-16H6.098A63.738 63.738 0 0 0 4 64"/>
      <path fill="#FEC514" d="M111.695 30.648A61.485 61.485 0 0 0 117.922 24C106.188 9.379 88.199 0 68 0 42.715 0 20.957 14.71 10.574 36H98.04a20.123 20.123 0 0 0 13.652-5.352"/>
      <path fill="#00BFB3" d="M98.04 92H10.577C20.961 113.29 42.715 128 68 128c20.2 0 38.188-9.383 49.922-24a61.1 61.1 0 0 0-6.227-6.648A20.133 20.133 0 0 0 98.04 92"/>
    </svg>
    <text class="node-title" x="887" y="772">Elasticsearch</text>
    <text class="node-subtitle" x="887" y="796">Centralized data</text>
  </g>
  <g filter="url(#shadow)">
    <rect x="1125" y="735" width="210" height="80" rx="18" fill="url(#observe)" stroke="#C4B5FD"/>
    <rect x="1144" y="757" width="36" height="36" rx="10" fill="#FFFFFF" stroke="#DDD6FE"/>
    <svg x="1150" y="763" width="24" height="24" viewBox="0 0 128 128" aria-hidden="true">
      <path fill="#F04E98" d="M112 0H12v48c17.3 0 33.54 4.453 47.73 12.188z"/>
      <path fill="#343741" d="M12 48v67.152l47.73-54.96A99.422 99.422 0 0 0 12 48"/>
      <path fill="#00BFB3" d="m70.04 66.621-48.974 56.406L16.738 128h93.258c-5.121-25.21-19.758-46.945-39.957-61.379"/>
    </svg>
    <text class="node-title" x="1192" y="772">Kibana</text>
    <text class="node-subtitle" x="1192" y="796">Dashboards</text>
  </g>

  <path class="observe" d="M765 775H820"/>
  <path class="observe" d="M1070 775H1125"/>
  <path class="observe" d="M530 315V660H390V735"/>
  <path class="observe" d="M840 465H870V660H655V735"/>
  <path class="observe" d="M565 528V660H945V735"/>
  <text class="label" x="405" y="650" fill="#6D28D9">errors</text>
  <text class="label" x="688" y="650" fill="#6D28D9">traces</text>
  <text class="label" x="790" y="650" fill="#6D28D9">logs · metrics</text>

  <text class="tiny" x="60" y="882">Kubernetes runs application and data workloads together; Sentinel and replication support availability.</text>
  </g>
  </g>
  </g>

  <path class="deploy" d="M830 155H870"/>
  <path class="deploy" d="M1090 155H1120V305"/>
  <text class="label" x="1133" y="266" fill="#0F766E">deploy</text>
</svg>
