<svg xmlns="http://www.w3.org/2000/svg" viewBox="0 0 1700 1080" role="img" aria-labelledby="diagram-title diagram-description">
  <title id="diagram-title">Notification delivery platform architecture</title>
  <desc id="diagram-description">A queue-driven notification platform running on Amazon EKS. Internal services enqueue jobs in Amazon ElastiCache for Redis, scalable notification worker pods consume them, read data from an Amazon RDS for MySQL read replica through VPC peering, and send messages to a third-party messaging API through a NAT Gateway and Internet Gateway. GitHub Actions, a GitOps repository, Amazon ECR, Argo CD, and an in-cluster observability stack support delivery and operations.</desc>

  <defs>
    <marker id="arrow" viewBox="0 0 10 10" refX="9" refY="5" markerWidth="7" markerHeight="7" orient="auto-start-reverse">
      <path d="M 0 0 L 10 5 L 0 10 z" fill="#475569"/>
    </marker>
    <marker id="arrow-orange" viewBox="0 0 10 10" refX="9" refY="5" markerWidth="7" markerHeight="7" orient="auto-start-reverse">
      <path d="M 0 0 L 10 5 L 0 10 z" fill="#ED7100"/>
    </marker>
    <marker id="arrow-blue" viewBox="0 0 10 10" refX="9" refY="5" markerWidth="7" markerHeight="7" orient="auto-start-reverse">
      <path d="M 0 0 L 10 5 L 0 10 z" fill="#2563EB"/>
    </marker>
    <marker id="arrow-teal" viewBox="0 0 10 10" refX="9" refY="5" markerWidth="7" markerHeight="7" orient="auto-start-reverse">
      <path d="M 0 0 L 10 5 L 0 10 z" fill="#0F766E"/>
    </marker>
    <filter id="soft-shadow" x="-20%" y="-20%" width="140%" height="150%">
      <feDropShadow dx="0" dy="5" stdDeviation="8" flood-color="#0F172A" flood-opacity="0.08"/>
    </filter>

    <!-- AWS Architecture Icons, Asset Package 07312025 -->
    <symbol id="icon-ecr" viewBox="0 0 80 80">
      <rect width="80" height="80" fill="#ED7100"/>
      <path d="M38.7880741,37.5776945 C38.2933845,37.8655125 37.9855777,38.4000317 37.9855777,38.973662 L37.9855777,66.7195186 L16.9987459,54.9841655 L16.9987459,27.7076428 L40.5569643,14.0588515 L61.484833,24.4283226 L38.7880741,37.5776945 Z M63.9203049,24.4022485 C63.9203049,23.8276153 63.6134974,23.2920933 63.0598448,22.9751927 L41.3464689,12.2146099 C40.8507799,11.9287976 40.2351662,11.9277948 39.7404766,12.2156128 L15.8024965,26.0840283 C15.3078069,26.3718463 15,26.9063655 15,27.4799958 L15,55.2158239 C15,55.7894542 15.3078069,56.3239734 15.8174871,56.6198142 L37.573836,68.7853901 C37.8216805,68.9287976 38.1005056,69 38.3783312,69 C38.6551575,69 38.9339826,68.9287976 39.1808277,68.7853901 C39.6765167,68.4985749 39.9843236,67.9640557 39.9843236,67.3894226 L39.9843236,39.201309 L63.1178084,25.798216 C63.6134974,25.5114008 63.9203049,24.9768817 63.9203049,24.4022485 Z M63.9692742,55.0473451 L44.9811883,66.6613533 L44.9811883,56.2617967 L54.881976,49.872638 L54.9499334,49.424364 C54.9679221,49.3070305 54.9749177,49.3070305 54.9749177,48.7664942 L55.0058983,36.3602344 L64.0002547,31.1484218 L63.9692742,55.0473451 Z M65.1965042,29.0715191 C64.6998158,28.7816953 64.0842021,28.7826982 63.5885131,29.0715191 L54.0135209,34.6182835 C53.713709,34.7817481 53.0081517,35.1658398 53.0081517,35.9580914 L52.9761718,48.7173546 L43.8508975,54.606091 C43.3062392,54.9310145 42.9824424,55.4454766 42.9824424,55.9890214 L42.9824424,67.3081917 C42.9824424,67.8748021 43.2872511,68.3912699 43.7979307,68.6871107 C44.0647633,68.8405468 44.361577,68.9187691 44.6573914,68.9187691 C44.948209,68.9187691 45.2390265,68.8445582 45.5018616,68.692125 L65.1675223,56.6639396 C65.6622119,56.3761216 65.9680201,55.8416024 65.9680201,55.2709807 L66,30.4664837 C66,29.8928534 65.6921931,29.3583342 65.1965042,29.0715191 Z" fill="#fff"/>
    </symbol>

    <symbol id="icon-eks" viewBox="0 0 80 80">
      <rect width="80" height="80" fill="#ED7100"/>
      <path d="M46.842,32.1990168 L40.013,40.1200132 L47.441,48.7840092 L44.669,48.7840092 L38,41.0000169 L38,49.0000169 L36,49.0000169 L36,32.0000169 L38,32.0000169 L38,39.0000169 L44.181,32.1990168 L46.842,32.1990168 Z M64,48.2340095 L56,43.4330117 L56,32.0000169 C56,31.6440171 55.812,31.3150172 55.504,31.1360173 L44,24.4260204 L44,14.7520248 L64,26.5710194 L64,48.2340095 Z M65.509,25.13902 L43.509,12.139026 C43.199,11.9560261 42.818,11.9540261 42.504,12.131026 C42.193,12.3090259 42,12.6410257 42,13.0000256 L42,25.0000201 C42,25.3550199 42.189,25.6840198 42.496,25.8640197 L54,32.5740166 L54,44.0000114 C54,44.3510113 54.185,44.6770111 54.486,44.857011 L64.486,50.8570083 C64.644,50.9520082 64.822,51 65,51 C65.17,51 65.34,50.9570082 65.493,50.8700083 C65.807,50.6930084 66,50.3600085 66,50 L66,26.0000196 C66,25.6460198 65.814,25.31902 65.509,25.13902 Z M40.445,66.863001 L17,54.3990067 L17,26.5710194 L37,14.7520248 L37,24.4510204 L26.463,31.1560173 C26.175,31.3400172 26,31.6580171 26,32.0000169 L26,49.0000091 C26,49.373009 26.208,49.7150088 26.538,49.8870087 L39.991,56.8870055 C40.28,57.0370055 40.624,57.0380055 40.912,56.8880055 L53.964,50.1440086 L61.996,54.9640064 L40.445,66.863001 Z M64.515,54.1420068 L54.515,48.1420095 C54.217,47.9640096 53.849,47.9520096 53.541,48.1120095 L40.455,54.8730065 L28,48.3930094 L28,32.5490167 L38.537,25.8440197 C38.825,25.6600198 39,25.3420199 39,25.0000201 L39,13.0000256 C39,12.6410257 38.808,12.3090259 38.496,12.131026 C38.184,11.9540261 37.802,11.9560261 37.491,12.139026 L15.491,25.13902 C15.187,25.31902 15,25.6460198 15,26.0000196 L15,55 C15,55.3690062 15.204,55.7090061 15.53,55.883006 L39.984,68.8830001 C40.131,68.961 40.292,69 40.453,69 C40.62,69 40.786,68.958 40.937,68.8750001 L64.484,55.875006 C64.797,55.7020061 64.993,55.3750062 65.0001416,55.0180064 C65.006,54.6600066 64.821,54.3260067 64.515,54.1420068 Z" fill="#fff"/>
    </symbol>

    <symbol id="icon-elasticache" viewBox="0 0 80 80">
      <rect width="80" height="80" fill="#C925D1"/>
      <path d="M51,61.5554864 L51,55.7029342 C48.466,57.3400887 43.904,58.1131616 39.556,58.1131616 C34.816,58.1131616 31.121,57.2860836 29,55.8679498 L29,61.5554864 C29,63.2486461 32.948,64.9998113 39.556,64.9998113 C46.3,64.9998113 51,63.1846401 51,61.5554864 Z M39.556,49.2203227 C34.816,49.2203227 31.121,48.3942447 29,46.976111 L29,52.6866497 C29.031,54.3738088 32.973,56.1129729 39.556,56.1129729 C46.279,56.1129729 50.969,54.3088027 51,52.6826493 L51,46.8100953 C48.466,48.4482498 43.904,49.2203227 39.556,49.2203227 Z M51,43.7908105 L51,37.0291726 C48.466,38.666327 43.904,39.4393999 39.556,39.4393999 C34.816,39.4393999 31.121,38.613322 29,37.1951882 L29,43.7948108 C29.031,45.48197 32.973,47.220134 39.556,47.220134 C46.279,47.220134 50.969,45.4159638 51,43.7908105 Z M28.997,33.9928861 C28.997,35.7000472 32.973,37.4392112 39.556,37.4392112 C46.898,37.4392112 50.969,35.4170205 51,34.0098877 C51.003,32.5847533 46.927,30.546561 39.556,30.546561 C32.946,30.546561 28.997,32.2987263 28.997,33.9928861 Z M53,34.0178885 L53,61.5554864 C53,65.2968393 46.031,67 39.556,67 C31.929,67 27,64.8627984 27,61.5554864 L27,34.023889 C27,30.684574 31.927,28.5463723 39.556,28.5463723 C46.032,28.5463723 53.003,30.2505331 53.003,33.9928861 C53.003,34.001887 53,34.0088876 53,34.0178885 Z M67,21.1206718 C67.553,21.1206718 68,20.6726295 68,20.1205774 L68,15.0000943 C68,14.4470422 67.553,14 67,14 L13,14 C12.447,14 12,14.4470422 12,15.0000943 L12,20.1205774 C12,20.6726295 12.447,21.1206718 13,21.1206718 C14.221,21.1206718 15.214,22.1077649 15.214,23.3208793 C15.214,24.5339938 14.221,25.5210869 13,25.5210869 C12.447,25.5210869 12,25.9691292 12,26.5211812 L12,47.0031135 C12,47.5551656 12.447,48.0032078 13,48.0032078 L23,48.0032078 L23,46.0030192 L18,46.0030192 L18,43.0027361 L23,43.0027361 L23,41.0025474 L17,41.0025474 C16.447,41.0025474 16,41.4495896 16,42.0026418 L16,46.0030192 L14,46.0030192 L14,27.4012643 C15.843,26.9522219 17.214,25.2930654 17.214,23.3208793 C17.214,21.3476932 15.843,19.6885367 14,19.2394943 L14,16.0001887 L66,16.0001887 L66,19.2394943 C64.157,19.6885367 62.786,21.3476932 62.786,23.3208793 C62.786,25.2930654 64.157,26.9522219 66,27.4012643 L66,46.0030192 L64,46.0030192 L64,42.0026418 C64,41.4495896 63.553,41.0025474 63,41.0025474 L57,41.0025474 L57,43.0027361 L62,43.0027361 L62,46.0030192 L57,46.0030192 L57,48.0032078 L67,48.0032078 C67.553,48.0032078 68,47.5551656 68,47.0031135 L68,26.5211812 C68,25.9691292 67.553,25.5210869 67,25.5210869 C65.779,25.5210869 64.786,24.5339938 64.786,23.3208793 C64.786,22.1077649 65.779,21.1206718 67,21.1206718 Z" fill="#fff"/>
    </symbol>

    <symbol id="icon-rds" viewBox="0 0 80 80">
      <rect width="80" height="80" fill="#C925D1"/>
      <path d="M15.414,14 L24.707,23.293 L23.293,24.707 L14,15.414 L14,23 L12,23 L12,13 C12,12.448 12.447,12 13,12 L23,12 L23,14 L15.414,14 Z M68,13 L68,23 L66,23 L66,15.414 L56.707,24.707 L55.293,23.293 L64.586,14 L57,14 L57,12 L67,12 C67.553,12 68,12.448 68,13 Z M66,57 L68,57 L68,67 C68,67.552 67.553,68 67,68 L57,68 L57,66 L64.586,66 L55.293,56.707 L56.707,55.293 L66,64.586 L66,57 Z M65.5,39.213 C65.5,35.894 61.668,32.615 55.25,30.442 L55.891,28.548 C63.268,31.045 67.5,34.932 67.5,39.213 C67.5,43.495 63.268,47.383 55.89,49.879 L55.249,47.984 C61.668,45.812 65.5,42.534 65.5,39.213 Z M14.556,39.213 C14.556,42.393 18.143,45.585 24.152,47.753 L23.473,49.634 C16.535,47.131 12.556,43.333 12.556,39.213 C12.556,35.094 16.535,31.296 23.473,28.792 L24.152,30.673 C18.143,32.842 14.556,36.034 14.556,39.213 Z M24.707,56.707 L15.414,66 L23,66 L23,68 L13,68 C12.447,68 12,67.552 12,67 L12,57 L14,57 L14,64.586 L23.293,55.293 L24.707,56.707 Z M40,31.286 C32.854,31.286 29,29.44 29,28.686 C29,27.931 32.854,26.086 40,26.086 C47.145,26.086 51,27.931 51,28.686 C51,29.44 47.145,31.286 40,31.286 Z M40.029,39.031 C33.187,39.031 29,37.162 29,36.145 L29,31.284 C31.463,32.643 35.832,33.286 40,33.286 C44.168,33.286 48.537,32.643 51,31.284 L51,36.145 C51,37.163 46.835,39.031 40.029,39.031 Z M40.029,46.667 C33.187,46.667 29,44.798 29,43.781 L29,38.862 C31.431,40.291 35.742,41.031 40.029,41.031 C44.292,41.031 48.578,40.292 51,38.867 L51,43.781 C51,44.799 46.835,46.667 40.029,46.667 Z M40,53.518 C32.883,53.518 29,51.605 29,50.622 L29,46.498 C31.431,47.927 35.742,48.667 40.029,48.667 C44.292,48.667 48.578,47.929 51,46.503 L51,50.622 C51,51.605 47.117,53.518 40,53.518 Z M40,24.086 C33.739,24.086 27,25.525 27,28.686 L27,50.622 C27,53.836 33.54,55.518 40,55.518 C46.46,55.518 53,53.836 53,50.622 L53,28.686 C53,25.525 46.261,24.086 40,24.086 Z" fill="#fff"/>
    </symbol>

    <symbol id="icon-nat" viewBox="0 0 48 48">
      <path d="M13.6255,35.9209 L13.6255,33.0829 L15.3995,34.5019 L13.6255,35.9209 Z M13.2505,30.2209 C12.9495,29.9799 12.5365,29.9329 12.1915,30.1009 C11.8465,30.2679 11.6255,30.6169 11.6255,31.0019 L11.6255,38.0019 C11.6255,38.3869 11.8465,38.7359 12.1915,38.9029 C12.3305,38.9699 12.4785,39.0019 12.6255,39.0019 C12.8485,39.0019 13.0695,38.9279 13.2505,38.7829 L17.6255,35.2829 C17.8625,35.0929 18.0005,34.8059 18.0005,34.5019 C18.0005,34.1979 17.8625,33.9109 17.6255,33.7209 L13.2505,30.2209 Z M37.2515,26.8369 L37.2515,22.9149 L39.2125,24.8759 L37.2515,26.8369 Z M41.3335,24.1689 L36.9585,19.7939 C36.6725,19.5079 36.2445,19.4219 35.8685,19.5769 C35.4945,19.7319 35.2515,20.0969 35.2515,20.5009 L35.2515,23.8759 L27.6255,23.8759 L27.6255,14.3759 C27.6255,13.8229 27.1785,13.3759 26.6255,13.3759 L18.9315,13.3759 L18.9315,15.3759 L25.6255,15.3759 L25.6255,23.8759 L18.7505,23.8759 L18.7505,25.8759 L25.6255,25.8759 L25.6255,34.3769 L18.9315,34.3769 L18.9315,36.3769 L26.6255,36.3769 C27.1785,36.3769 27.6255,35.9299 27.6255,35.3769 L27.6255,25.8759 L35.2515,25.8759 L35.2515,29.2519 C35.2515,29.6559 35.4955,30.0219 35.8685,30.1759 C35.9925,30.2279 36.1225,30.2519 36.2515,30.2519 C36.5115,30.2519 36.7675,30.1499 36.9585,29.9589 L41.3335,25.5829 C41.7245,25.1919 41.7245,24.5599 41.3335,24.1689 Z M13.6255,26.2959 L13.6255,23.4569 L15.3995,24.8759 L13.6255,26.2959 Z M13.2505,20.5949 C12.9495,20.3539 12.5365,20.3079 12.1915,20.4749 C11.8465,20.6419 11.6255,20.9909 11.6255,21.3759 L11.6255,28.3769 C11.6255,28.7619 11.8465,29.1109 12.1915,29.2779 C12.3305,29.3449 12.4785,29.3769 12.6255,29.3769 C12.8485,29.3769 13.0695,29.3029 13.2505,29.1579 L17.6255,25.6569 C17.8625,25.4669 18.0005,25.1799 18.0005,24.8759 C18.0005,24.5719 17.8625,24.2849 17.6255,24.0949 L13.2505,20.5949 Z M13.6255,15.7949 L13.6255,12.9569 L15.3995,14.3759 L13.6255,15.7949 Z M13.2505,10.0949 C12.9495,9.8539 12.5365,9.8069 12.1915,9.9749 C11.8465,10.1419 11.6255,10.4909 11.6255,10.8759 L11.6255,17.8759 C11.6255,18.2609 11.8465,18.6099 12.1915,18.7769 C12.3305,18.8439 12.4785,18.8759 12.6255,18.8759 C12.8485,18.8759 13.0695,18.8019 13.2505,18.6569 L17.6255,15.1569 C17.8625,14.9669 18.0005,14.6799 18.0005,14.3759 C18.0005,14.0719 17.8625,13.7849 17.6255,13.5949 L13.2505,10.0949 Z M24.0005,44.0029 C12.9725,44.0029 3.9995,35.0299 3.9995,24.0009 C3.9995,12.9729 12.9725,3.9999 24.0005,3.9999 C35.0295,3.9999 44.0025,12.9729 44.0025,24.0009 C44.0025,35.0299 35.0295,44.0029 24.0005,44.0029 Z M24.0005,1.9999 C11.8685,1.9999 1.9995,11.8689 1.9995,24.0009 C1.9995,36.1329 11.8685,46.0029 24.0005,46.0029 C36.1325,46.0029 46.0025,36.1329 46.0025,24.0009 C46.0025,11.8689 36.1325,1.9999 24.0005,1.9999 Z" fill="#8C4FFF"/>
    </symbol>

    <symbol id="icon-internet-gateway" viewBox="0 0 48 48">
      <path d="M33.4312,35.1778 L31.9332,35.1778 L31.9332,17.5018 C31.9332,17.1088 31.7022,16.7518 31.3442,16.5908 L31.2522,16.5488 C29.2432,15.6418 27.1642,14.7028 24.1762,14.7028 C21.0532,14.7028 18.7612,15.7118 16.4952,16.8368 C16.1552,17.0058 15.9402,17.3528 15.9402,17.7328 L15.9402,35.1778 L14.4772,35.1778 L14.4772,16.3118 C16.9112,14.3328 20.4202,13.2048 24.1862,13.2048 C27.6872,13.2048 31.0252,14.2018 33.4312,15.9528 L33.4312,35.1778 Z M24.1862,11.2048 C19.7612,11.2048 15.6172,12.6238 12.8152,15.0998 C12.6002,15.2888 12.4772,15.5618 12.4772,15.8488 L12.4772,36.1778 C12.4772,36.7308 12.9242,37.1778 13.4772,37.1778 L16.9402,37.1778 C17.4932,37.1778 17.9402,36.7308 17.9402,36.1778 L17.9402,18.3558 C19.8592,17.4288 21.7192,16.7028 24.1762,16.7028 C26.5112,16.7028 28.2092,17.3778 29.9332,18.1488 L29.9332,36.1778 C29.9332,36.7308 30.3802,37.1778 30.9332,37.1778 L34.4312,37.1778 C34.9842,37.1778 35.4312,36.7308 35.4312,36.1778 L35.4312,15.4578 C35.4312,15.1538 35.2922,14.8658 35.0532,14.6748 C32.2792,12.4698 28.3182,11.2048 24.1862,11.2048 Z M23.9542,43.9088 C12.9522,43.9088 3.9992,34.9568 3.9992,23.9538 C3.9992,12.9508 12.9522,3.9998 23.9542,3.9998 C34.9572,3.9998 43.9092,12.9508 43.9092,23.9538 C43.9092,34.9568 34.9572,43.9088 23.9542,43.9088 Z M23.9542,1.9998 C11.8482,1.9998 1.9992,11.8488 1.9992,23.9538 C1.9992,36.0608 11.8482,45.9088 23.9542,45.9088 C36.0602,45.9088 45.9092,36.0608 45.9092,23.9538 C45.9092,11.8488 36.0602,1.9998 23.9542,1.9998 Z" fill="#8C4FFF"/>
    </symbol>

    <symbol id="icon-peering" viewBox="0 0 48 48">
      <path d="M30.6055,25.6368 C30.6055,25.2538 30.6055,24.2358 28.9355,23.8938 C28.4915,23.8028 28.1645,23.4248 28.1375,22.9718 C28.0995,22.3148 27.8295,21.9068 27.4315,21.9068 C27.2485,21.9068 27.0725,22.0008 26.9485,22.1648 C26.7285,22.4588 26.3685,22.6078 26.0015,22.5548 C25.6375,22.4998 25.3335,22.2518 25.2085,21.9068 C25.0125,21.3658 24.7265,20.9008 24.3815,20.5608 C24.0655,20.2468 23.3415,19.6688 22.3165,19.6688 C21.9565,19.6688 21.5585,19.7408 21.1285,19.9188 C20.2085,20.3038 19.4595,21.4568 19.4595,22.4898 C19.4595,22.6118 19.4665,22.7288 19.4805,22.8458 C19.5405,23.3458 19.2185,23.8108 18.7315,23.9338 C17.8465,24.1568 17.3975,24.7208 17.3975,25.6118 L17.4025,25.7578 C17.4475,26.5858 18.4185,27.3468 19.4385,27.3468 L28.8285,27.3468 C30.6055,27.3468 30.6055,26.0598 30.6055,25.6368 Z M32.6055,25.6368 C32.6055,28.3178 30.6755,29.3048 28.9765,29.3458 C28.9595,29.3468 28.9425,29.3468 28.9245,29.3468 L19.4385,29.3468 C17.3555,29.3468 15.5085,27.7498 15.4055,25.8598 C15.4005,25.7738 15.3975,25.6968 15.3975,25.6118 C15.3975,24.0768 16.1565,22.8738 17.4645,22.2678 C17.5605,20.5108 18.7725,18.7358 20.3585,18.0738 C22.2795,17.2768 24.3065,17.6718 25.7885,19.1388 C26.0665,19.4128 26.3145,19.7238 26.5315,20.0698 C27.7795,19.5998 29.5565,20.1578 30.0285,22.1208 C31.6755,22.6828 32.6055,23.9348 32.6055,25.6368 Z M44.0015,24.0008 C44.0015,12.9728 35.0295,3.9998 24.0015,3.9998 C12.9725,3.9998 4.0005,12.9728 4.0005,24.0008 C4.0005,35.0298 12.9725,44.0018 24.0015,44.0018 C35.0295,44.0018 44.0015,35.0298 44.0015,24.0008 Z M46.0015,24.0008 C46.0015,36.1328 36.1325,46.0018 24.0015,46.0018 C11.8695,46.0018 2.0005,36.1328 2.0005,24.0008 C2.0005,11.8688 11.8695,1.9998 24.0015,1.9998 C36.1325,1.9998 46.0015,11.8688 46.0015,24.0008 Z M11.6735,20.3638 L10.2595,18.9498 L5.9145,23.2938 C5.7265,23.4818 5.6215,23.7358 5.6215,24.0008 C5.6215,24.2668 5.7265,24.5208 5.9145,24.7078 L10.2595,29.0538 L11.6735,27.6398 L9.0355,25.0008 L13.9905,25.0008 L13.9905,23.0008 L9.0355,23.0008 L11.6735,20.3638 Z M42.0885,23.2938 L37.7435,18.9498 L36.3295,20.3638 L38.9675,23.0008 L33.9855,23.0008 L33.9855,25.0008 L38.9675,25.0008 L36.3295,27.6398 L37.7435,29.0538 L42.0885,24.7078 C42.2765,24.5208 42.3815,24.2668 42.3815,24.0008 C42.3815,23.7358 42.2765,23.4818 42.0885,23.2938 Z M25.0015,38.9678 L25.0015,30.9758 L23.0015,30.9758 L23.0015,38.9678 L20.3635,36.3288 L18.9495,37.7428 L23.2935,42.0888 C23.4815,42.2768 23.7355,42.3818 24.0015,42.3818 C24.2665,42.3818 24.5205,42.2768 24.7085,42.0888 L29.0535,37.7428 L27.6395,36.3288 L25.0015,38.9678 Z M20.3635,11.6728 L18.9495,10.2588 L23.2935,5.9138 C23.6845,5.5238 24.3175,5.5238 24.7085,5.9138 L29.0535,10.2588 L27.6395,11.6728 L25.0015,9.0348 L25.0015,16.2748 L23.0015,16.2748 L23.0015,9.0348 L20.3635,11.6728 Z" fill="#8C4FFF"/>
    </symbol>
  </defs>

  <style>
    text { font-family: Pretendard, Inter, ui-sans-serif, system-ui, -apple-system, BlinkMacSystemFont, "Segoe UI", sans-serif; fill: #0F172A; }
    .title { font-size: 34px; font-weight: 700; letter-spacing: -0.7px; }
    .subtitle { font-size: 16px; fill: #64748B; }
    .group-title { font-size: 18px; font-weight: 700; }
    .node-title { font-size: 16px; font-weight: 700; }
    .label { font-size: 14px; font-weight: 600; }
    .small { font-size: 13px; fill: #64748B; }
    .tiny { font-size: 12px; fill: #64748B; }
    .edge-label { font-size: 12px; font-weight: 600; fill: #475569; paint-order: stroke; stroke: #F8FAFC; stroke-width: 4px; stroke-linejoin: round; }
    .boundary { fill: #FFFFFF; stroke-width: 2; }
    .node { fill: #FFFFFF; stroke: #CBD5E1; stroke-width: 1.5; }
    .edge { fill: none; stroke: #475569; stroke-width: 2; marker-end: url(#arrow); }
    .edge-orange { fill: none; stroke: #ED7100; stroke-width: 2.5; marker-end: url(#arrow-orange); }
    .edge-blue { fill: none; stroke: #2563EB; stroke-width: 2; marker-end: url(#arrow-blue); }
    .edge-teal { fill: none; stroke: #0F766E; stroke-width: 2; marker-end: url(#arrow-teal); }
    .edge-dashed { stroke-dasharray: 7 7; }
    .edge, .edge-orange, .edge-blue, .edge-teal { stroke-linecap: round; stroke-linejoin: round; }
    .aws-word { fill: #FFFFFF; }
  </style>

  <rect width="1700" height="1080" fill="#F8FAFC"/>

  <!-- Heading -->
  <text class="title" x="52" y="55">Notification Delivery Architecture</text>
  <text class="subtitle" x="52" y="82">Queue-driven workers · private workloads · no public ingress</text>

  <!-- AWS Cloud and Region -->
  <rect class="boundary" x="250" y="100" width="1190" height="930" rx="20" stroke="#64748B" filter="url(#soft-shadow)"/>
  <g transform="translate(274 122)">
    <rect width="42" height="42" rx="8" fill="#232F3E"/>
    <text class="aws-word" x="21" y="27" text-anchor="middle" font-size="13" font-weight="800">AWS</text>
    <path d="M10 31 Q21 36 32 30" fill="none" stroke="#FF9900" stroke-width="2.2" stroke-linecap="round"/>
  </g>
  <text class="group-title" x="330" y="148">AWS Cloud</text>

  <rect x="285" y="174" width="1120" height="820" rx="16" fill="#F6FFFF" fill-opacity="0.52" stroke="#00A4A6" stroke-width="1.7" stroke-dasharray="9 6"/>
  <rect x="330" y="158" width="194" height="32" rx="16" fill="#E7FAFA" stroke="#00A4A6"/>
  <circle cx="348" cy="174" r="5" fill="#00A4A6"/>
  <text class="label" x="362" y="179">AWS Region · Multi-AZ</text>

  <!-- CI/CD outside and ECR inside the AWS region -->
  <g filter="url(#soft-shadow)">
    <rect class="node" x="46" y="142" width="166" height="122" rx="16"/>
    <circle cx="88" cy="190" r="24" fill="#24292F"/>
    <path d="M78 187 h9 v-10 M87 177 l-4 4 M87 177 l4 4 M87 203 v-9 h10 M97 194 l-4-4 M97 194 l-4 4" fill="none" stroke="#FFFFFF" stroke-width="2.2" stroke-linecap="round" stroke-linejoin="round"/>
    <text class="node-title" x="122" y="187">GitHub</text>
    <text class="node-title" x="122" y="207">Actions</text>
    <text class="small" x="64" y="239">Build · test · GitOps</text>
  </g>

  <g filter="url(#soft-shadow)">
    <rect class="node" x="46" y="290" width="166" height="58" rx="13"/>
    <path d="M65 308 h17 l6 6 v17 H65 Z M82 308 v7 h6 M71 320 h11 M71 326 h8" fill="none" stroke="#475569" stroke-width="1.7" stroke-linecap="round" stroke-linejoin="round"/>
    <text class="label" x="100" y="315">GitOps repo</text>
    <text class="tiny" x="100" y="333">deployment branch</text>
  </g>

  <g filter="url(#soft-shadow)">
    <rect class="node" x="345" y="205" width="172" height="116" rx="14"/>
    <use href="#icon-ecr" x="365" y="226" width="58" height="58"/>
    <text class="node-title" x="438" y="247">Amazon ECR</text>
    <text class="small" x="438" y="270">Container image</text>
  </g>

  <path class="edge" d="M212 190 H294 Q310 190 310 206 V244 H345"/>
  <text class="edge-label" x="253" y="179">push image</text>

  <!-- Application VPC -->
  <rect x="325" y="350" width="755" height="610" rx="16" fill="#FBF9FF" fill-opacity="0.82" stroke="#8C4FFF" stroke-width="2"/>
  <rect x="345" y="334" width="177" height="32" rx="16" fill="#F2ECFF" stroke="#8C4FFF"/>
  <path d="M361 350 h14 M368 343 v14" stroke="#8C4FFF" stroke-width="2" stroke-linecap="round"/>
  <text class="label" x="384" y="355">Application VPC</text>

  <!-- Managed Redis in private data subnets -->
  <rect x="535" y="390" width="230" height="142" rx="13" fill="#F2FCFC" stroke="#00A4A6" stroke-width="1.6" stroke-dasharray="7 5"/>
  <text class="small" x="550" y="413">Private data subnets · Multi-AZ</text>
  <g filter="url(#soft-shadow)">
    <rect class="node" x="560" y="429" width="180" height="84" rx="12"/>
    <use href="#icon-elasticache" x="575" y="441" width="58" height="58"/>
    <text class="node-title" x="645" y="460">ElastiCache</text>
    <text class="small" x="645" y="481">Redis · BullMQ</text>
    <text class="small" x="645" y="498">job queue</text>
  </g>

  <!-- Public egress subnet -->
  <rect x="795" y="390" width="245" height="142" rx="13" fill="#F7FAEE" stroke="#7AA116" stroke-width="1.6" stroke-dasharray="7 5"/>
  <text class="small" x="810" y="413">Public egress subnets</text>
  <g filter="url(#soft-shadow)">
    <rect class="node" x="832" y="429" width="170" height="84" rx="12"/>
    <use href="#icon-nat" x="851" y="447" width="48" height="48"/>
    <text class="node-title" x="911" y="465">NAT</text>
    <text class="node-title" x="911" y="484">Gateway</text>
  </g>

  <!-- Workload private subnets and EKS -->
  <rect x="360" y="555" width="685" height="370" rx="14" fill="#F1FCFC" fill-opacity="0.85" stroke="#00A4A6" stroke-width="1.6" stroke-dasharray="8 5"/>
  <text class="small" x="380" y="581">Private workload subnets · Multi-AZ</text>

  <rect x="390" y="600" width="625" height="302" rx="14" fill="#FFF9F4" stroke="#ED7100" stroke-width="2"/>
  <use href="#icon-eks" x="408" y="615" width="50" height="50"/>
  <text class="group-title" x="472" y="641">Amazon EKS</text>
  <text class="small" x="472" y="661">Managed compute</text>

  <!-- Argo CD and HPA are capabilities, not count indicators -->
  <g>
    <rect x="606" y="616" width="105" height="34" rx="17" fill="#E6F7F8" stroke="#0F9FA6"/>
    <path d="M623 632 a8 8 0 1 1 4 7" fill="none" stroke="#0F9FA6" stroke-width="2" stroke-linecap="round"/>
    <path d="M623 632 l-4 3 l5 1" fill="none" stroke="#0F9FA6" stroke-width="2" stroke-linecap="round" stroke-linejoin="round"/>
    <text class="label" x="638" y="637">Argo CD</text>
  </g>
  <g>
    <rect x="913" y="616" width="78" height="34" rx="17" fill="#EEF2FF" stroke="#6366F1"/>
    <path d="M927 639 v-13 M923 630 l4-4 l4 4 M935 626 v13 M931 635 l4 4 l4-4" fill="none" stroke="#6366F1" stroke-width="1.8" stroke-linecap="round" stroke-linejoin="round"/>
    <text class="label" x="944" y="637">HPA</text>
  </g>

  <!-- Producer services -->
  <g filter="url(#soft-shadow)">
    <rect class="node" x="422" y="686" width="214" height="102" rx="13"/>
    <text class="node-title" x="442" y="713">Internal producer services</text>
    <g>
      <rect x="442" y="729" width="38" height="28" rx="7" fill="#EEF2F6"/>
      <rect x="487" y="729" width="43" height="28" rx="7" fill="#EEF2F6"/>
      <rect x="537" y="729" width="48" height="28" rx="7" fill="#EEF2F6"/>
      <rect x="592" y="729" width="24" height="28" rx="7" fill="#EEF2F6"/>
      <text class="tiny" x="461" y="747" text-anchor="middle">API</text>
      <text class="tiny" x="508" y="747" text-anchor="middle">Batch</text>
      <text class="tiny" x="561" y="747" text-anchor="middle">Scrape</text>
      <text x="604" y="748" text-anchor="middle" font-size="17" fill="#64748B">…</text>
    </g>
    <text class="tiny" x="442" y="777">queue producers</text>
  </g>

  <!-- Scalable notification workers -->
  <g filter="url(#soft-shadow)">
    <rect class="node" x="751" y="676" width="232" height="116" rx="13"/>
    <g transform="translate(771 698)">
      <rect x="0" y="12" width="50" height="45" rx="8" fill="#326CE5"/>
      <path d="M13 29 h24 M13 36 h18 M13 43 h10" stroke="#FFFFFF" stroke-width="2.4" stroke-linecap="round"/>
    </g>
    <text class="node-title" x="838" y="711">Notification</text>
    <text class="node-title" x="838" y="732">Worker Pods</text>
    <text class="small" x="838" y="755">queue consumers</text>
    <text class="tiny" x="771" y="778">health · metrics · graceful shutdown</text>
  </g>

  <!-- Deployment paths -->
  <path class="edge edge-dashed" d="M431 321 V330 H774 V676"/>
  <text class="edge-label" x="526" y="325">pull image</text>
  <path class="edge-teal edge-dashed" d="M129 264 V290"/>
  <path class="edge-teal edge-dashed" d="M212 319 H330 V542 H680 V600 H658 V616"/>
  <text class="edge-label" x="226" y="307">commit manifest</text>
  <path class="edge-teal" d="M711 633 H735 Q751 633 751 649 V676"/>
  <text class="edge-label" x="717" y="621">sync</text>

  <!-- Queue paths -->
  <path class="edge-orange" d="M422 737 H374 V520 H650 V513"/>
  <text class="edge-label" x="462" y="512">enqueue</text>
  <path class="edge-orange" d="M698 513 V556 Q698 571 713 571 H867 V676"/>
  <text class="edge-label" x="731" y="559">consume</text>

  <!-- Outbound delivery -->
  <path class="edge-orange" d="M983 714 H1000 V548 Q1000 532 984 532 H918 V513"/>
  <text class="edge-label" x="1007" y="567">outbound</text>

  <!-- Observability stack -->
  <g filter="url(#soft-shadow)">
    <rect class="node" x="410" y="830" width="585" height="62" rx="12"/>
    <g transform="translate(431 844)">
      <circle cx="16" cy="16" r="15" fill="#0EA5E9" opacity="0.15"/>
      <path d="M9 20 l5-8 l5 8 l4-6" fill="none" stroke="#0284C7" stroke-width="2" stroke-linecap="round" stroke-linejoin="round"/>
    </g>
    <text class="label" x="470" y="852">Fluent Bit · OpenTelemetry</text>
    <text class="tiny" x="470" y="873">logs · metrics · traces</text>
    <path d="M634 843 v36" stroke="#CBD5E1"/>
    <circle cx="666" cy="861" r="16" fill="#F59E0B" opacity="0.18"/>
    <path d="M658 861 h16 M666 853 v16" stroke="#D97706" stroke-width="2" stroke-linecap="round"/>
    <text class="label" x="694" y="852">Elasticsearch · Prometheus</text>
    <text class="tiny" x="694" y="873">Kibana · Grafana</text>
  </g>
  <path class="edge-blue edge-dashed" d="M867 792 V830"/>
  <text class="edge-label" x="878" y="814">telemetry</text>

  <!-- Internet gateway on the Application VPC edge -->
  <g>
    <circle cx="1094" cy="471" r="32" fill="#FFFFFF" stroke="#8C4FFF" stroke-width="1.5"/>
    <use href="#icon-internet-gateway" x="1070" y="447" width="48" height="48"/>
    <text class="small" x="1094" y="520" text-anchor="middle">Internet Gateway</text>
  </g>

  <!-- Data VPC and peering -->
  <rect x="1140" y="555" width="225" height="300" rx="16" fill="#FBF9FF" fill-opacity="0.9" stroke="#8C4FFF" stroke-width="2"/>
  <rect x="1157" y="539" width="135" height="32" rx="16" fill="#F2ECFF" stroke="#8C4FFF"/>
  <text class="label" x="1175" y="560">Data VPC</text>
  <rect x="1172" y="590" width="161" height="225" rx="13" fill="#F2FCFC" stroke="#00A4A6" stroke-width="1.6" stroke-dasharray="7 5"/>
  <text class="small" x="1188" y="616">Private DB subnets</text>
  <g filter="url(#soft-shadow)">
    <rect class="node" x="1192" y="640" width="121" height="148" rx="12"/>
    <use href="#icon-rds" x="1222" y="657" width="62" height="62"/>
    <text class="node-title" x="1252" y="742" text-anchor="middle">Amazon RDS</text>
    <text class="small" x="1252" y="763" text-anchor="middle">MySQL read replica</text>
    <text class="tiny" x="1252" y="781" text-anchor="middle">read-only</text>
  </g>

  <g>
    <circle cx="1110" cy="716" r="35" fill="#FFFFFF" stroke="#8C4FFF" stroke-width="1.5"/>
    <use href="#icon-peering" x="1086" y="692" width="48" height="48"/>
    <text class="small" x="1110" y="768" text-anchor="middle">VPC Peering</text>
  </g>
  <path class="edge-blue" d="M983 734 H1038 Q1054 734 1054 718 Q1054 716 1056 716 H1075"/>
  <path class="edge-blue" d="M1145 716 H1192"/>
  <text class="edge-label" x="1014" y="705">read-only</text>

  <!-- Third-party provider outside AWS -->
  <g filter="url(#soft-shadow)">
    <rect class="node" x="1490" y="370" width="168" height="156" rx="18"/>
    <g transform="translate(1534 393)">
      <path d="M18 54 H74 C88 54 96 45 96 34 C96 23 88 14 77 13 C72 4 64 0 54 0 C40 0 29 9 27 22 C17 23 10 30 10 39 C10 47 13 51 18 54 Z" fill="#E2E8F0" stroke="#94A3B8" stroke-width="1.5"/>
      <rect x="40" y="22" width="28" height="22" rx="4" fill="#FFFFFF" stroke="#64748B"/>
      <path d="M41 25 l13 10 l13-10" fill="none" stroke="#64748B" stroke-width="1.7" stroke-linejoin="round"/>
    </g>
    <text class="node-title" x="1574" y="474" text-anchor="middle">Third-party</text>
    <text class="node-title" x="1574" y="495" text-anchor="middle">Messaging API</text>
    <text class="small" x="1574" y="515" text-anchor="middle">AlimTalk · LMS</text>
  </g>
  <path class="edge-orange" d="M1002 471 H1058"/>
  <path class="edge-orange" d="M1126 471 H1425 Q1441 471 1441 455 H1490"/>
  <text class="edge-label" x="1198" y="459">message delivery</text>

  <!-- Compact legend -->
  <g transform="translate(52 1005)">
    <path d="M0 0 h38" class="edge-orange"/>
    <text class="small" x="52" y="5">job &amp; notification flow</text>
    <path d="M226 0 h38" class="edge-blue"/>
    <text class="small" x="278" y="5">data &amp; telemetry</text>
    <path d="M430 0 h38" class="edge-teal edge-dashed"/>
    <text class="small" x="482" y="5">deployment flow</text>
  </g>
</svg>
